<svg width="100" height="100" viewBox="0 0 100 100" fill="none" xmlns="http://www.w3.org/2000/svg">
<path d="M25.0001 60.4167C25.0001 62.7083 23.1251 64.5833 20.8334 64.5833C18.5417 64.5833 16.6667 62.7083 16.6667 60.4167V41.6667C16.6667 39.375 18.5417 37.5 20.8334 37.5C23.1251 37.5 25.0001 39.375 25.0001 41.6667V60.4167ZM83.3334 60.4167C83.3334 62.7083 81.4584 64.5833 79.1667 64.5833C76.8751 64.5833 75.0001 62.7083 75.0001 60.4167V41.6667C75.0001 39.375 76.8751 37.5 79.1667 37.5C81.4584 37.5 83.3334 39.375 83.3334 41.6667V60.4167ZM45.8334 83.3333C45.8334 85.625 43.9584 87.5 41.6667 87.5C39.3751 87.5 37.5001 85.625 37.5001 83.3333V64.5833C37.5001 62.2917 39.3751 60.4167 41.6667 60.4167C43.9584 60.4167 45.8334 62.2917 45.8334 64.5833V83.3333ZM62.5001 83.3333C62.5001 85.625 60.6251 87.5 58.3334 87.5C56.0417 87.5 54.1667 85.625 54.1667 83.3333V64.5833C54.1667 62.2917 56.0417 60.4167 58.3334 60.4167C60.6251 60.4167 62.5001 62.2917 62.5001 64.5833V83.3333Z" fill="#043862"/>
<path d="M29.1667 37.5V68.75C29.1667 71.0417 31.0417 72.9167 33.3334 72.9167H66.6667C68.9584 72.9167 70.8334 71.0417 70.8334 68.75V37.5H29.1667ZM50.0001 16.6667C37.5001 16.6667 29.7917 24.1667 29.1667 33.3333H70.8334C70.2084 24.1667 62.5001 16.6667 50.0001 16.6667ZM41.6667 28.3333C40.4167 28.3333 39.5834 27.5 39.5834 26.25C39.5834 25 40.4167 24.1667 41.6667 24.1667C42.9167 24.1667 43.7501 25 43.7501 26.25C43.7501 27.2917 42.9167 28.3333 41.6667 28.3333ZM58.3334 28.3333C57.0834 28.3333 56.2501 27.5 56.2501 26.25C56.2501 25 57.0834 24.1667 58.3334 24.1667C59.5834 24.1667 60.4167 25 60.4167 26.25C60.4167 27.2917 59.5834 28.3333 58.3334 28.3333Z" fill="#043862"/>
<path d="M58.9582 21.875C58.5416 21.875 58.1249 21.6667 57.7083 21.4583C56.6666 20.8333 56.4582 19.5833 57.0832 18.5417L60.6249 13.3333C61.2499 12.2917 62.4999 12.0833 63.5416 12.7083C64.5832 13.3333 64.7916 14.5833 64.1666 15.625L60.6249 20.8333C60.4166 21.4583 59.7916 21.875 58.9582 21.875ZM40.2082 21.0417C39.5832 21.0417 38.7499 20.625 38.5416 20L35.8333 15.625C35.2083 14.5833 35.4166 13.3333 36.4583 12.7083C37.4999 12.0833 38.7499 12.2917 39.3749 13.3333L42.0833 17.7083C42.7083 18.75 42.4999 20 41.4582 20.625C41.0416 20.8333 40.6249 21.0417 40.2082 21.0417Z" fill="#043862"/>
</svg>
