<svg xmlns="http://www.w3.org/2000/svg" width="75.145" height="85.222" viewBox="0 0 75.145 85.222">
  <g id="css" transform="translate(-0.445 -70.766)">
    <path id="Path_1098" data-name="Path 1098" d="M37.972,155.988,7.284,147.469.445,70.766H75.59l-6.846,76.691-30.772,8.531Z" transform="translate(0)" fill="#043862"/>
    <path id="Path_1099" data-name="Path 1099" d="M152.866,157.593l5.85-65.536H128v72.43l24.866-6.894Z" transform="translate(-89.983 -15.02)" fill="#053c68"/>
    <path id="Path_1100" data-name="Path 1100" d="M53.669,188.636l.843,9.407H75.564v-9.407Z" transform="translate(-37.546 -83.151)" fill="#ebebeb"/>
    <path id="Path_1101" data-name="Path 1101" d="M47.917,124l.855,9.407H71.506V124Z" transform="translate(-33.489 -37.55)" fill="#ebebeb"/>
    <path id="Path_1102" data-name="Path 1102" d="M78.589,246.863l-.041.011-10.477-2.829-.67-7.5H57.958l1.318,14.771,19.27,5.349.043-.012v-9.788Z" transform="translate(-40.572 -116.946)" fill="#ebebeb"/>
    <path id="Path_1106" data-name="Path 1106" d="M149.757,143.036l1.7-19.041H127.89V133.4h13.256l-.856,9.633h-12.4v9.407h11.584l-1.092,12.2-10.492,2.832v9.787l19.285-5.345.142-1.589,2.211-24.766.229-2.526Z" transform="translate(-89.905 -37.55)" fill="#fff"/>
  </g>
</svg>
