<svg xmlns="http://www.w3.org/2000/svg" width="93" height="93" viewBox="0 0 93 93">
  <g id="ds" transform="translate(-8790 -1060)">
    <path id="Path_1108" data-name="Path 1108" d="M46.5,0A46.5,46.5,0,1,1,0,46.5,46.5,46.5,0,0,1,46.5,0Z" transform="translate(8790 1060)" fill="#043862"/>
    <path id="Path_1120" data-name="Path 1120" d="M7.7,0A7.7,7.7,0,1,1,0,7.7,7.7,7.7,0,0,1,7.7,0Z" transform="translate(8831.435 1075)" fill="#fff"/>
    <path id="Path_1113" data-name="Path 1113" d="M6.259,0A6.259,6.259,0,1,1,0,6.259,6.259,6.259,0,0,1,6.259,0Z" transform="translate(8832.397 1099.073)" fill="#fff"/>
    <path id="Path_1114" data-name="Path 1114" d="M0,0H2.889V8.666H0Z" transform="translate(8837.212 1092.333)" fill="#fff"/>
    <path id="Path_1115" data-name="Path 1115" d="M6.259,0A6.259,6.259,0,1,1,0,6.259,6.259,6.259,0,0,1,6.259,0Z" transform="translate(8817.978 1095.497) rotate(45)" fill="#fff"/>
    <path id="Path_1116" data-name="Path 1116" d="M0,0H2.889V16.215H0Z" transform="translate(8831.487 1088.797) rotate(45)" fill="#fff"/>
    <path id="Path_1110" data-name="Path 1110" d="M6.259,0A6.259,6.259,0,1,1,0,6.259,6.259,6.259,0,0,1,6.259,0Z" transform="translate(8851.432 1101.674) rotate(-30)" fill="#fff"/>
    <path id="Path_1117" data-name="Path 1117" d="M0,0H2.889V16.215H0Z" transform="translate(8844.915 1090.84) rotate(-45)" fill="#fff"/>
    <path id="Path_1122" data-name="Path 1122" d="M4.1,0A4.1,4.1,0,1,1,0,4.1,4.1,4.1,0,0,1,4.1,0Z" transform="translate(8807.67 1118.006) rotate(23)" fill="#fff"/>
    <path id="Path_1123" data-name="Path 1123" d="M0,0H1.891V8.688H0Z" transform="translate(8813.474 1112.401) rotate(23)" fill="#fff"/>
    <path id="Path_1118" data-name="Path 1118" d="M4.1,0A4.1,4.1,0,1,1,0,4.1,4.1,4.1,0,0,1,4.1,0Z" transform="translate(8818.392 1124.138) rotate(-18)" fill="#fff"/>
    <path id="Path_1121" data-name="Path 1121" d="M0,0H1.891V11.356H0Z" transform="translate(8817.978 1113.099) rotate(-18)" fill="#fff"/>
    <path id="Path_1111" data-name="Path 1111" d="M4.1,0A4.1,4.1,0,1,1,0,4.1,4.1,4.1,0,0,1,4.1,0Z" transform="matrix(0.643, -0.766, 0.766, 0.643, 8833.354, 1124.995)" fill="#fff"/>
    <path id="Path_1119" data-name="Path 1119" d="M0,0H1.891V18.317H0Z" transform="matrix(0.643, -0.766, 0.766, 0.643, 8822.314, 1111.617)" fill="#fff"/>
    <path id="Path_1109" data-name="Path 1109" d="M4.1,0A4.1,4.1,0,1,1,0,4.1,4.1,4.1,0,0,1,4.1,0Z" transform="translate(8857.711 1120.387) rotate(-7)" fill="#fff"/>
    <path id="Path_1112" data-name="Path 1112" d="M0,0H1.891V8.688H0Z" transform="translate(8859.935 1112.631) rotate(-7)" fill="#fff"/>
  </g>
</svg>
