<svg xmlns="http://www.w3.org/2000/svg" width="64" height="64" viewBox="0 0 64 64">
  <path id="icons8-github" d="M38,6a32,32,0,0,0-7.44,63.121c-.729-.174-1.451-.368-2.16-.59V61.2a9.767,9.767,0,0,1-2.8.4c-4.476,0-6.336-3.994-6.8-6a6.232,6.232,0,0,0-1.808-3.088c-.944-.842-1.386-.844-1.392-1.132-.012-.6.81-.58,1.2-.58,2,0,3.516,2.128,4.22,3.228,1.744,2.716,3.616,3.172,4.58,3.172a7.056,7.056,0,0,0,2.95-.524A9.475,9.475,0,0,1,31.6,50.8C24.1,49.3,18.8,45,18.8,38a14.274,14.274,0,0,1,3.856-9.59A12.989,12.989,0,0,1,22,24a14.461,14.461,0,0,1,.8-5.2,14.229,14.229,0,0,1,8.868,4.108,22.527,22.527,0,0,1,12.665,0A14.229,14.229,0,0,1,53.2,18.8,14.381,14.381,0,0,1,54,24a15.42,15.42,0,0,1-.532,4.55A14.234,14.234,0,0,1,57.2,38c0,7-5.3,11.3-12.8,12.8A9.484,9.484,0,0,1,47.6,58V68.532c-.709.223-1.43.416-2.16.59A32,32,0,0,0,38,6Zm2.231,63.914C39.494,69.966,38.751,70,38,70,38.751,70,39.493,69.964,40.231,69.914Zm4.89-.719a31.93,31.93,0,0,1-4.4.682A32.118,32.118,0,0,0,45.121,69.2ZM38,70c-.751,0-1.494-.034-2.231-.086C36.507,69.964,37.249,70,38,70Zm-2.722-.123a31.913,31.913,0,0,1-4.4-.682A32.13,32.13,0,0,0,35.278,69.877Z" transform="translate(-6 -6)" fill="#043862"/>
</svg>
