<svg xmlns="http://www.w3.org/2000/svg" width="75.145" height="85.222" viewBox="0 0 75.145 85.222">
  <g id="html" transform="translate(-0.445 -24.566)">
    <path id="Path_1093" data-name="Path 1093" d="M75.59,70.766l-6.846,76.691-30.773,8.531L7.284,147.469.445,70.766H75.59Z" transform="translate(0 -46.2)" fill="#043862"/>
    <path id="Path_1107" data-name="Path 1107" d="M152.866,157.593l5.85-65.536H128v72.43l24.866-6.894Z" transform="translate(-89.982 -61.22)" fill="#053c68"/>
    <path id="Path_1095" data-name="Path 1095" d="M58.2,133.4H71.506V124H47.917l.225,2.524,2.312,25.924H71.506v-9.407H59.058Zm2.12,23.744H50.875l1.318,14.771,19.27,5.349.043-.012v-9.788l-.041.011-10.477-2.829Z" transform="translate(-33.489 -83.75)" fill="#ebebeb"/>
    <path id="Path_1097" data-name="Path 1097" d="M127.889,152.443h11.584l-1.092,12.2-10.492,2.832v9.787l19.286-5.345.141-1.589,2.211-24.767.229-2.526H127.889Zm0-19.064v.023h22.723l.189-2.114.429-4.769.225-2.524H127.889v9.385Z" transform="translate(-89.904 -83.75)" fill="#fff"/>
  </g>
</svg>
