<svg xmlns="http://www.w3.org/2000/svg" width="99.172" height="68.346" viewBox="0 0 99.172 68.346">
  <g id="Group_2" data-name="Group 2" transform="translate(-10310.192 -4122.867)">
    <g id="Group_1" data-name="Group 1" transform="translate(10337.235 4123.617)">
      <path id="Path_1" data-name="Path 1" d="M10523.764,4042l.22-30.988,8.929-5.4,9.046,5.4-9.046,5.087v20.866l9.077,5.4-.031,10.067Z" transform="translate(-10523.764 -4005.617)" fill="none" stroke="#043862" stroke-linejoin="round" stroke-width="1.5"/>
      <path id="Path_2" data-name="Path 2" d="M10718.729,4309.759l18.39-10.114v-10.222l-18.39,10.222Z" transform="translate(-10700.538 -4262.941)" fill="none" stroke="#043862" stroke-linejoin="round" stroke-width="1.5"/>
      <path id="Path_3" data-name="Path 3" d="M10621.245,4239.778l18.4-10.488,9.146,5.537-18.469,10.286Z" transform="translate(-10612.148 -4208.419)" fill="none" stroke="#043862" stroke-linejoin="round" stroke-width="1.5"/>
      <path id="Path_4" data-name="Path 4" d="M10818.765,4076.213v-10.292l9.215-5.463,8.909,5.463-8.909,5.271-9.153-5.242" transform="translate(-10791.238 -4055.341)" fill="none" stroke="#043862" stroke-linejoin="round" stroke-width="1.5"/>
      <path id="Path_5" data-name="Path 5" d="M10924.8,4119.8v10.273l-9.077,5.38.149-10.564" transform="translate(-10879.148 -4109.143)" fill="none" stroke="#043862" stroke-linejoin="round" stroke-width="1.5"/>
      <path id="Path_6" data-name="Path 6" d="M10718.729,4064.287l.391,20.4" transform="translate(-10700.538 -4058.813)" fill="none" stroke="#043862" stroke-width="1.5"/>
      <path id="Path_7" data-name="Path 7" d="M10534.929,4067.963l-8.9-5.084" transform="translate(-10525.815 -4057.536)" fill="none" stroke="#043862" stroke-width="1.5"/>
    </g>
    <path id="Path_8" data-name="Path 8" d="M24.929-208.251h6.38v3.079H21.045v-19.363h3.884Zm7.851-4.66a8.9,8.9,0,0,1,.929-4.133,6.811,6.811,0,0,1,2.524-2.774,6.72,6.72,0,0,1,3.565-.971,6.262,6.262,0,0,1,3.01.693,6.108,6.108,0,0,1,2.067,1.748v-2.191h3.911v15.368H44.874v-2.247a5.776,5.776,0,0,1-2.067,1.789,6.323,6.323,0,0,1-3.038.707,6.531,6.531,0,0,1-3.537-1,6.989,6.989,0,0,1-2.524-2.816A9.042,9.042,0,0,1,32.779-212.912Zm12.095.056a4.981,4.981,0,0,0-.555-2.427,3.912,3.912,0,0,0-1.5-1.553,4,4,0,0,0-2.025-.541,3.933,3.933,0,0,0-2,.527,3.969,3.969,0,0,0-1.484,1.54,4.823,4.823,0,0,0-.569,2.4,4.982,4.982,0,0,0,.569,2.427,4.1,4.1,0,0,0,1.5,1.6,3.805,3.805,0,0,0,1.983.555,4,4,0,0,0,2.025-.541,3.912,3.912,0,0,0,1.5-1.553A4.981,4.981,0,0,0,44.874-212.856Zm11.6-5.3a5.46,5.46,0,0,1,1.956-1.914,5.439,5.439,0,0,1,2.76-.693v4.078H60.159a3.934,3.934,0,0,0-2.76.86,3.965,3.965,0,0,0-.929,3v7.656H52.586V-220.54H56.47Zm6.325,5.243a8.9,8.9,0,0,1,.929-4.133,6.811,6.811,0,0,1,2.524-2.774,6.72,6.72,0,0,1,3.565-.971,6.262,6.262,0,0,1,3.01.693,6.108,6.108,0,0,1,2.067,1.748v-2.191H78.8v15.368H74.889v-2.247a5.777,5.777,0,0,1-2.067,1.789,6.323,6.323,0,0,1-3.038.707,6.531,6.531,0,0,1-3.537-1,6.989,6.989,0,0,1-2.524-2.816A9.042,9.042,0,0,1,62.794-212.912Zm12.095.056a4.981,4.981,0,0,0-.555-2.427,3.912,3.912,0,0,0-1.5-1.553,4,4,0,0,0-2.025-.541,3.933,3.933,0,0,0-2,.527,3.969,3.969,0,0,0-1.484,1.54,4.823,4.823,0,0,0-.569,2.4,4.982,4.982,0,0,0,.569,2.427,4.1,4.1,0,0,0,1.5,1.6,3.805,3.805,0,0,0,1.983.555,4,4,0,0,0,2.025-.541,3.912,3.912,0,0,0,1.5-1.553A4.981,4.981,0,0,0,74.889-212.856Zm14.12,4.106,3.884-11.79h4.133l-5.687,15.368H86.624L80.964-220.54h4.161Zm24.495-4.439a9.166,9.166,0,0,1-.111,1.5H102.158a3.821,3.821,0,0,0,1.165,2.608,3.593,3.593,0,0,0,2.524.943A3.171,3.171,0,0,0,108.927-210h4.189a7,7,0,0,1-2.552,3.648,7.45,7.45,0,0,1-4.633,1.429,8.017,8.017,0,0,1-3.981-.985A6.931,6.931,0,0,1,99.2-208.7a8.542,8.542,0,0,1-.985-4.161,8.7,8.7,0,0,1,.971-4.189,6.775,6.775,0,0,1,2.719-2.774,8.143,8.143,0,0,1,4.022-.971,8.08,8.08,0,0,1,3.925.943,6.638,6.638,0,0,1,2.691,2.677A8.1,8.1,0,0,1,113.5-213.189Zm-4.022-1.11a3.08,3.08,0,0,0-1.082-2.4,3.833,3.833,0,0,0-2.58-.9,3.525,3.525,0,0,0-2.427.874,3.842,3.842,0,0,0-1.207,2.427Zm10.736-11.4v20.528h-3.884V-225.7Z" transform="translate(10289.147 4396.135)" fill="#043862"/>
  </g>
</svg>
