<svg width="85" height="85" viewBox="0 0 85 85" fill="none" xmlns="http://www.w3.org/2000/svg">
<path d="M56.5056 30.0781H71.3111V32.926H65.4379V47.9084H62.5011V32.926H56.5056V30.0781ZM32.1561 30.0781V32.926H20.2885V37.5074H29.8324V40.3553H20.2885V45.0605H32.1561V47.9086H17.3519V32.926H17.3506V30.0781H32.1561ZM39.549 30.0855H35.7058L49.4711 47.9158H53.3254L46.4419 39.0068L53.3144 30.099L49.4711 30.1053L44.5178 36.5166L39.549 30.0855ZM43.4926 42.8219L41.568 40.3281L35.6948 47.9296H39.549L43.4926 42.8219Z" fill="#043862"/>
<path fill-rule="evenodd" clip-rule="evenodd" d="M17.4546 47.908L3.67075 30.0703H0V47.9006H2.9366V33.8816L13.7655 47.908H17.4546Z" fill="#043862"/>
<path d="M71.9711 47.7991C71.8689 47.8008 71.7674 47.7811 71.6727 47.7411C71.578 47.701 71.492 47.6416 71.4199 47.5662C71.2667 47.4108 71.191 47.2229 71.1929 47C71.191 46.7835 71.2667 46.5976 71.4199 46.4422C71.492 46.3668 71.578 46.3074 71.6727 46.2673C71.7674 46.2273 71.8689 46.2076 71.9711 46.2093C72.178 46.2093 72.359 46.2869 72.5121 46.4422C72.6675 46.5974 72.7449 46.7835 72.7471 47C72.7467 47.1421 72.7088 47.2814 72.6375 47.4025C72.5676 47.5222 72.4697 47.6213 72.3529 47.6907C72.2376 47.7626 72.1055 47.8001 71.9711 47.7991ZM76.9833 40.2875H78.2846V45.5126C78.2826 45.9926 78.183 46.4034 77.9882 46.7487C77.7912 47.094 77.5185 47.3575 77.1684 47.5435C76.8202 47.7274 76.4122 47.8216 75.9486 47.8216C75.5247 47.8216 75.1448 47.7418 74.8065 47.5864C74.4682 47.4313 74.1996 47.1983 74.0027 46.8917C73.8035 46.5852 73.706 46.203 73.706 45.7455H75.0095C75.0114 45.9456 75.0552 46.1194 75.1387 46.2644C75.2209 46.4079 75.3412 46.5235 75.485 46.5974C75.634 46.6752 75.8053 46.7141 75.9982 46.7141C76.2073 46.7141 76.3863 46.6691 76.5315 46.5769C76.6767 46.487 76.7882 46.3521 76.8659 46.1725C76.9414 45.9948 76.9813 45.7741 76.9833 45.5126V40.2875ZM83.6389 42.331C83.6072 42.0142 83.4679 41.7669 83.2252 41.5913C82.9803 41.4137 82.664 41.3256 82.2759 41.3256C82.0034 41.3256 81.7687 41.3685 81.5737 41.4524C81.3787 41.5383 81.2274 41.6525 81.1239 41.7977C81.0205 41.9427 80.9688 42.1082 80.9647 42.2941C80.9647 42.4495 81.0005 42.5842 81.0702 42.6966C81.1398 42.8113 81.2333 42.9073 81.3547 42.9848C81.4796 43.0668 81.6131 43.1334 81.7528 43.1831C81.8999 43.2362 82.0472 43.2811 82.1944 43.318L82.8729 43.4916C83.1432 43.5557 83.4076 43.6446 83.6629 43.7573C83.9084 43.8632 84.1381 44.0049 84.3453 44.1782C84.5442 44.3451 84.707 44.554 84.8229 44.7911C84.9403 45.0303 85 45.3102 85 45.6331C85 46.0684 84.8926 46.4503 84.6755 46.7815C84.4587 47.1104 84.1463 47.3679 83.7364 47.5538C83.3285 47.7377 82.8351 47.8317 82.2541 47.8317C81.693 47.8317 81.2035 47.7418 80.7917 47.5619C80.3779 47.3843 80.0553 47.1226 79.8226 46.7795C79.5898 46.4362 79.4644 46.0173 79.4465 45.5249H80.736C80.7539 45.7821 80.8335 45.9969 80.9688 46.1704C81.106 46.342 81.285 46.4688 81.504 46.5547C81.7249 46.6383 81.9715 46.6812 82.2442 46.6812C82.5288 46.6812 82.7794 46.6363 82.9963 46.5486C83.2111 46.4607 83.3803 46.3379 83.5017 46.1785C83.6251 46.0211 83.6868 45.8354 83.6888 45.6227C83.6868 45.4287 83.631 45.2673 83.5235 45.1405C83.4141 45.0139 83.2629 44.9076 83.0698 44.8219C82.849 44.7269 82.6215 44.6497 82.3894 44.591L81.5657 44.3743C80.9707 44.2169 80.4991 43.9779 80.1548 43.6571C79.8088 43.3362 79.6375 42.9113 79.6375 42.3778C79.6375 41.9407 79.7529 41.5565 79.9859 41.2276C80.2165 40.8986 80.533 40.643 80.933 40.4613C81.3349 40.2774 81.7886 40.1875 82.2938 40.1875C82.8073 40.1875 83.2569 40.2774 83.645 40.4613C84.0329 40.6432 84.3375 40.8966 84.5582 41.2195C84.7791 41.5423 84.8945 41.9119 84.9006 42.331H83.6389Z" fill="#043862"/>
</svg>
