<svg id="Layer_1" data-name="Layer 1" xmlns="http://www.w3.org/2000/svg" viewBox="0 0 83.57 65.01"><polygon points="0 0 36.33 0 36.33 6.01 6.96 6.01 6.96 39.81 25.1 39.81 8.15 22.91 23.06 8.15 26.99 12.28 15.9 23.01 39.21 46.12 0 46.12 0 0" style="fill:#043862"/><polygon points="83.57 46.12 47.24 46.12 47.24 40.11 76.61 40.11 76.61 6.31 58.47 6.31 75.42 23.21 60.51 37.97 56.58 33.84 67.67 23.11 44.36 0 83.57 0 83.57 46.12" style="fill:#043862"/><polygon points="39.06 49.43 45.1 49.43 45.1 59.02 63.32 59.02 63.32 65.01 20.88 65.01 20.88 59.01 39.07 59.01 39.06 49.43" style="fill:#043862"/><rect x="28.65" y="20.78" width="5.18" height="5.18" style="fill:#043862"/><rect x="39.21" y="20.78" width="5.18" height="5.18" style="fill:#043862"/><rect x="50.43" y="20.78" width="5.18" height="5.18" style="fill:#043862"/></svg>