<svg width="93" height="100" viewBox="0 0 93 100" fill="none" xmlns="http://www.w3.org/2000/svg">
<path d="M26.9237 16.6297C26.7749 16.6482 26.2727 16.713 25.8077 16.7686C18.8792 17.6111 12.5087 21.5186 8.60274 27.3149C6.86364 29.9074 5.67324 32.676 5.04084 35.6204C4.56654 37.7778 4.51074 38.3797 4.51074 40.9723C4.52004 43.0463 4.54794 43.5463 4.72464 44.5371C5.02224 46.213 5.56164 48.3982 5.81274 48.9352C5.92434 49.1852 6.05454 49.5 6.09174 49.6297C6.12894 49.7593 6.25914 50.0463 6.38004 50.2778C6.49164 50.5093 6.68694 50.9352 6.79854 51.2223C6.91014 51.5186 7.02174 51.7593 7.05894 51.7593C7.08684 51.7593 7.30074 52.1297 7.53324 52.5741C7.76574 53.0186 7.97964 53.3982 8.00754 53.426C8.09124 53.5 8.78874 54.5649 8.92824 54.8426C9.00264 54.9908 9.20724 55.2593 9.38394 55.4445C9.56064 55.6389 9.83964 55.9908 10.007 56.25C10.3325 56.7593 11.4113 57.926 11.6996 58.0926C11.8019 58.1482 12.3785 58.6204 12.983 59.1482C15.7358 61.5278 19.3907 63.4537 22.7387 64.2963C25.7705 65.0556 27.4445 65.176 31.8062 64.9723L32.2154 64.9537L32.5223 65.7871C32.6897 66.2408 32.8943 66.8612 32.9687 67.1667C33.0431 67.463 33.1733 67.8334 33.2477 68C33.3221 68.1574 33.5081 68.7037 33.6755 69.213C33.8336 69.713 34.0196 70.213 34.094 70.3241C34.1591 70.426 34.2893 70.7778 34.373 71.1112C34.4474 71.4445 34.5962 71.8797 34.6799 72.0834C34.7729 72.2871 34.9403 72.7408 35.0519 73.1019C35.1728 73.4537 35.3216 73.8704 35.3867 74.0278C35.6471 74.5926 35.8982 75.3334 35.8982 75.5278C35.8982 75.6389 35.9261 75.7408 35.9726 75.7593C36.0098 75.7686 36.3353 76.6575 36.698 77.7315C37.6838 80.6019 38.3441 82.4445 38.4185 82.5C38.4557 82.5278 38.5952 82.8704 38.7347 83.2593C38.93 83.8149 39.0788 84.0649 39.3857 84.3426C40.2134 85.1019 41.5154 85.3241 42.7337 84.9167C43.7009 84.5926 44.2403 84.2963 44.696 83.8334C45.1703 83.3612 45.6632 82.4167 45.6632 81.9723C45.6632 81.7223 45.2633 80.5093 43.4126 75.1852C43.208 74.6019 42.7616 73.2871 42.4082 72.2686C42.0641 71.25 41.6735 70.1204 41.5433 69.7686C40.9109 68.0371 39.2462 63.1112 39.2462 62.9723C39.2462 62.8797 39.6461 62.6204 40.3994 62.2408C44.0915 60.3612 47.2349 57.4723 49.5692 53.7963C50.3039 52.6389 51.392 50.3334 51.8477 48.9445C52.3964 47.2778 52.6103 46.426 52.88 44.7408C53.5775 40.3241 53.0567 35.8426 51.3641 31.7686C50.3225 29.2593 48.9926 27.0649 47.4581 25.3056C47.1326 24.9352 46.8722 24.6111 46.8722 24.5834C46.8722 24.5463 46.7513 24.4167 46.5932 24.2871C46.4444 24.1667 46.3142 24.0093 46.3142 23.9445C46.3142 23.7408 44.9192 22.4908 44.0729 21.9352C43.7846 21.7408 43.5242 21.5463 43.5056 21.5093C43.4777 21.426 42.8825 20.9723 42.7337 20.9167C42.4733 20.8149 41.4782 20.1482 41.4782 20.0834C41.4782 20.0371 41.4131 20 41.3387 20C41.2643 20 40.8551 19.7963 40.4366 19.5556C39.2276 18.8426 38.6138 18.5463 37.7117 18.2223C37.256 18.0556 36.8561 17.8982 36.8282 17.8611C36.7166 17.7223 33.4151 16.963 31.9922 16.7593C31.2947 16.6574 27.4445 16.5556 26.9237 16.6297ZM30.6995 22.8704C33.0431 23.1111 35.0984 23.6852 37.1816 24.676C39.1625 25.6297 40.5296 26.5741 42.0734 28.0556C44.9657 30.8426 46.7234 34.1852 47.486 38.3797C47.7185 39.6574 47.7185 42.6389 47.4953 43.8889C46.7327 48.0093 45.2261 51.0278 42.5012 53.8334C39.6461 56.7686 36.14 58.5834 31.8527 59.3241C30.5507 59.5463 27.3701 59.5463 26.1332 59.3149C21.9482 58.5556 18.7862 56.9815 16.0055 54.3056C14.3222 52.6852 13.1504 51.1019 12.1832 49.1112C10.7603 46.2223 10.1465 43 10.3976 39.7778C10.5278 38.176 10.751 37.0371 11.1974 35.6482C11.8205 33.7223 12.7598 31.8889 13.9595 30.2778C14.6942 29.2871 16.6379 27.3426 17.6516 26.5834C21.3623 23.7963 26.2076 22.426 30.6995 22.8704Z" fill="#043862"/>
<path d="M35.3309 27.8982C35.1821 28.0093 33.3872 32.713 33.3872 32.9908C33.3872 33.1482 33.815 33.5186 34.001 33.5186C34.3265 33.5186 34.5962 33.0463 35.2007 31.3889C35.5448 30.4445 35.8889 29.5186 35.9726 29.3241L36.1028 28.9723L37.5908 28.9908C39.2276 29 39.3392 28.963 39.3392 28.463C39.3392 28.0463 39.1346 27.8704 38.6138 27.8611C38.372 27.8611 37.5722 27.8426 36.8282 27.8149C35.8517 27.7871 35.4425 27.8149 35.3309 27.8982Z" fill="#043862"/>
<path d="M25.9008 29.7222C24.0129 30.1111 22.1994 31.3333 21.1206 32.9259C20.4696 33.8981 20.1348 34.9815 20.1348 36.1574C20.1348 37.3611 20.3859 38.4537 20.73 38.8056C21.0741 39.1389 21.8646 39.2963 22.8318 39.2222C25.2219 39.0463 29.3046 36.8241 31.0995 34.7222C32.0481 33.6204 32.3829 32.3981 31.9179 31.8056C31.332 31.0648 30.0114 30.213 28.8954 29.8611C28.1886 29.6389 26.6634 29.5648 25.9008 29.7222ZM28.7373 31.0463C29.3232 31.2593 30.3369 31.8981 30.7275 32.2963L30.9879 32.5741L30.7554 33.1019C30.4392 33.7778 29.1558 35.0463 28.0398 35.787C26.8029 36.6019 25.0173 37.4907 24.0129 37.787C23.0364 38.0833 21.7809 38.1574 21.5949 37.9352C21.5391 37.8796 21.4554 37.5741 21.3996 37.2778C21.0648 35.463 21.5856 33.8704 22.9248 32.6019C24.6174 31.0093 26.9238 30.3889 28.7373 31.0463Z" fill="#043862"/>
<path d="M36.8099 32.4537C35.7311 33.1667 35.0522 33.6759 35.015 33.8056C34.9313 34.0648 35.2382 34.4815 35.5358 34.5185C35.6939 34.5371 36.2519 34.213 37.3679 33.4908C38.2421 32.9074 39.0512 32.3611 39.1535 32.2685C39.3767 32.0648 39.3953 31.7778 39.1907 31.5C38.9303 31.1204 38.642 31.2315 36.8099 32.4537Z" fill="#043862"/>
<path d="M38.2419 34.0648C37.0236 35 36.8376 35.2315 37.0329 35.5926C37.3026 36.1018 37.563 36.037 38.6418 35.2315C39.144 34.8518 39.5811 34.537 39.609 34.537C39.6462 34.5463 39.795 34.6574 39.9531 34.7963C43.0407 37.4907 43.5057 37.8704 43.7568 37.8704C44.0358 37.8704 44.2683 37.5926 44.2683 37.25C44.2683 37.0093 44.1474 36.8611 43.4592 36.2778C43.0035 35.8981 42.1386 35.1481 41.5248 34.6204C39.9066 33.2222 39.8043 33.1481 39.6183 33.1481C39.5253 33.1481 38.9115 33.5648 38.2419 34.0648Z" fill="#043862"/>
<path d="M32.5132 34.139C31.453 35.3797 29.9185 36.7038 28.3375 37.7686C27.1657 38.5556 23.6689 39.9167 22.4227 40.0649C21.4927 40.176 21.4648 40.2501 21.5857 42.0834C21.7717 44.9723 22.5994 47.8704 23.7247 49.5093C24.5617 50.7316 25.7428 51.6575 27.0169 52.0927C27.6679 52.3149 27.9004 52.3519 28.9234 52.3519C29.8906 52.3519 30.244 52.3056 31.0252 52.1019C32.755 51.6482 34.7266 50.7038 36.475 49.4908C40.3531 46.8056 41.5993 43.7223 40.1392 40.4353C39.2743 38.4723 36.9865 36.1204 34.2244 34.3334C33.685 33.9908 33.1642 33.7038 33.0712 33.7038C32.9689 33.7038 32.7178 33.8982 32.5132 34.139ZM34.8103 36.1853C36.7075 37.5927 38.3629 39.3982 38.986 40.7501C39.9439 42.7964 39.7393 44.3982 38.2792 46.3242C37.0423 47.9723 33.592 50.1482 31.0624 50.889C29.9092 51.2223 28.4584 51.2964 27.6586 51.0649C26.0032 50.5927 24.7012 49.2871 23.8828 47.2964C23.3062 45.8797 22.8319 43.639 22.7668 42.0001L22.7389 41.2593L23.9014 40.926C24.9802 40.6204 26.1706 40.1667 27.454 39.5927L27.9841 39.3612L28.4863 40.213C28.9792 41.0371 30.9229 44.3704 32.2249 46.6019C32.8852 47.7501 33.0991 47.9445 33.5176 47.7871C33.7408 47.6945 33.8524 47.5186 33.8524 47.2223C33.8524 47.0927 31.267 42.5649 29.3047 39.2686C29.1373 39.0001 29.0164 38.7593 29.035 38.7501C29.0536 38.7408 29.5837 38.3334 30.2254 37.8612C30.8671 37.3797 31.8064 36.5742 32.3179 36.0649L33.2479 35.139L33.5083 35.2779C33.6571 35.3519 34.243 35.7593 34.8103 36.1853Z" fill="#043862"/>
<path d="M15.3824 39.4444C15.2615 39.4907 14.8988 40.0556 14.378 41.0278C13.4852 42.7037 13.4201 42.9815 13.8851 43.2407C14.3129 43.4815 14.5454 43.2593 15.2522 41.9167C15.5963 41.2685 15.8939 40.7222 15.9218 40.6944C15.9404 40.6667 16.982 40.8148 18.2189 41.0278C20.33 41.3889 20.4788 41.3981 20.6927 41.2593C20.8694 41.1481 20.9252 41.0278 20.9252 40.787C20.9252 40.3426 20.7113 40.2315 19.4837 40.0463C18.6095 39.9167 16.3589 39.5278 15.7637 39.4074C15.6614 39.3889 15.494 39.3981 15.3824 39.4444Z" fill="#043862"/>
<path d="M18.5538 43.0001C16.5357 44.0464 16.3683 44.1945 16.6752 44.6575C16.9542 45.0834 17.1123 45.0371 19.0746 44.0649C21.009 43.1019 21.195 42.9538 21.0834 42.4723C21.0276 42.2871 20.6835 42.0371 20.4789 42.0371C20.4417 42.0371 19.5768 42.4723 18.5538 43.0001Z" fill="#043862"/>
<path d="M19.2698 45.0371C18.5351 45.3519 17.8934 45.6852 17.8376 45.7778C17.7725 45.8982 17.8283 46.3519 18.0422 47.4352C18.8234 51.4075 18.8699 51.6112 19.0745 51.7778C19.3349 51.9908 19.5767 51.9908 19.8092 51.7593C20.0324 51.5371 20.0417 51.3889 19.8557 50.5741C19.4837 48.8426 19.0652 46.4445 19.1303 46.3889C19.1675 46.3519 19.6325 46.1482 20.1626 45.926C20.7671 45.676 21.1763 45.4537 21.2693 45.3149C21.5018 44.9537 21.2135 44.4445 20.7857 44.4537C20.6834 44.463 20.0045 44.7223 19.2698 45.0371Z" fill="#043862"/>
<path d="M64.5422 20.0557C64.4864 20.1853 64.4492 20.3057 64.4492 20.3242C64.4492 20.352 63.7982 22.1945 62.9984 24.4168C62.1986 26.6482 61.4081 28.8705 61.2407 29.352C61.0733 29.8334 60.6548 31.0001 60.3107 31.9445C59.9666 32.889 59.5481 34.0557 59.3807 34.5371C59.2133 35.0186 58.8785 35.9538 58.6367 36.6205C58.3949 37.2779 58.0601 38.2223 57.8927 38.7038C57.7253 39.1853 57.3068 40.352 56.9627 41.2964C56.6279 42.2408 56.0792 43.7594 55.7537 44.676C55.4282 45.5927 54.8609 47.176 54.4982 48.1945C54.1355 49.2131 53.5868 50.7316 53.2892 51.5742C52.9916 52.4168 52.136 54.8057 51.392 56.8797C50.648 58.9538 50.0342 60.676 50.0342 60.7038C50.0342 60.7223 52.0244 60.7316 54.461 60.7223L58.8878 60.6945L59.1854 59.7223C59.9945 57.102 61.5104 52.4445 61.5755 52.352C61.6871 52.2223 77.4227 52.2223 77.5529 52.3612C77.5994 52.4075 78.2504 54.3149 79.0037 56.5927L80.3708 60.7408H84.7697H89.1686L88.8152 59.7408C88.6199 59.1945 87.6527 56.5371 86.6762 53.8427C84.2024 47.0279 84.1001 46.7316 83.7467 45.7408C83.57 45.2594 83.198 44.2131 82.9097 43.426C82.6214 42.639 82.268 41.6575 82.1192 41.2501C81.9797 40.8427 81.5984 39.7964 81.2822 38.9353C80.966 38.0649 80.3987 36.5094 80.0267 35.4631C79.6454 34.4168 79.106 32.9168 78.8177 32.1297C78.5294 31.3427 78.1481 30.2964 77.9807 29.8149C77.8133 29.3334 77.432 28.2871 77.1437 27.5001C76.8554 26.7131 76.502 25.7316 76.3532 25.3242C76.2137 24.9168 75.8324 23.8705 75.5162 23.0094C75.2 22.139 74.8187 21.0742 74.6606 20.6205L74.3816 19.8149H69.5084H64.6352L64.5422 20.0557ZM70.4849 30.8334C71.387 33.602 72.2426 36.2038 74.1119 41.9168C74.7257 43.8057 75.2372 45.3797 75.2372 45.4075C75.2372 45.4353 72.6611 45.4631 69.5084 45.4631C64.9607 45.4631 63.7889 45.4353 63.8168 45.3427C63.8819 45.1853 66.2999 37.8242 67.8437 33.102C68.5412 30.9631 69.2015 28.9538 69.3038 28.6297C69.4154 28.3057 69.527 28.0834 69.5642 28.1205C69.6014 28.1575 70.0199 29.3797 70.4849 30.8334Z" fill="#043862"/>
</svg>
