<svg width="100" height="52" viewBox="0 0 100 52" fill="none" xmlns="http://www.w3.org/2000/svg">
<g clip-path="url(#clip0_51_17)">
<path d="M26.823 0.147367C25.5938 0.45263 24.6667 1.22106 24.0938 2.4L23.698 3.2L23.6459 10.4632L23.5938 17.7368L22.0834 17.8105C19.073 17.9474 16.7813 18.9053 14.6876 20.9158C13.5313 22.0211 12.7813 23.0632 12.1355 24.4526C10.3751 28.2105 10.8647 32.9053 13.3438 36.2421L13.8855 36.9684L13.323 37.5368L12.7709 38.1053L12.5522 37.8947C12.0626 37.4316 12.1563 37.3474 5.90632 43.6C1.15632 48.3684 -0.0103477 49.5789 6.89301e-05 49.7895C6.89301e-05 50.1684 1.82299 52 2.18757 52C2.3959 52 3.71882 50.7158 8.30215 46.0737C13.5105 40.8105 14.1667 40.1158 14.1667 39.8211C14.1667 39.6421 14.0938 39.4421 14.0105 39.3684C13.7605 39.1579 13.823 39.0105 14.3751 38.4842L14.9063 37.9895L15.1876 38.2105C17.3959 39.9263 19.4584 40.6947 22.1147 40.8105C22.8959 40.8421 23.5417 40.8737 23.5522 40.8842C23.5522 40.8947 23.5938 41.4211 23.6355 42.0737C23.7084 43.0421 23.7709 43.3579 24.0313 43.9158C24.4584 44.8105 25.1772 45.5263 26.1459 45.9895L26.9272 46.3684L59.8959 46.3579H92.8647L93.4376 46.1263C94.6459 45.6316 95.5417 44.7053 95.9376 43.5263C96.1459 42.8947 96.1459 42.7579 96.1251 23L96.0938 3.10526L95.8126 2.50526C95.2709 1.32632 94.0938 0.378948 92.8334 0.11579C91.9897 -0.0631569 27.5417 -0.0315808 26.823 0.147367ZM92.8647 2.66316C93.0938 2.78947 93.3855 3.06316 93.5105 3.25263L93.7501 3.61053V23.1474V42.6842L93.5105 43.0947C93.3751 43.3368 93.1147 43.6 92.8647 43.7263L92.448 43.9474L62.448 43.9789C45.948 44 31.2605 43.9789 29.8126 43.9474C27.3647 43.8737 27.1563 43.8526 26.8542 43.6421C26.1772 43.1789 26.0938 42.9579 26.0938 41.5684V40.3158L27.0938 39.8526C32.9792 37.1789 35.5522 30.3263 32.8647 24.4526C31.6876 21.8737 29.4063 19.6737 26.823 18.6211L26.0938 18.3263L26.0626 11.0526C26.0417 4.02105 26.0522 3.76842 26.2397 3.37895C26.4584 2.96842 26.8126 2.66316 27.2813 2.52632C27.4272 2.47368 42.1563 2.43158 60.0001 2.43158L92.448 2.42105L92.8647 2.66316ZM23.4792 20.8C23.6251 20.8632 23.6459 21.5789 23.6459 27.8316C23.6459 31.6526 23.6147 35.4632 23.573 36.2737L23.5105 37.7684L23.0209 37.8316C22.2501 37.9368 20.7188 37.7263 19.7501 37.3895C17.0522 36.4526 14.9897 34.2 14.2605 31.4C14.0105 30.4316 13.9584 28.6 14.1563 27.6316C14.8542 24.3158 17.4688 21.6316 20.698 20.9474C21.5938 20.7579 23.1563 20.6737 23.4792 20.8ZM26.8647 21.9895C29.3959 23.5158 30.9376 26.2947 30.9376 29.3158C30.9376 32.4105 29.4272 35.0526 26.7084 36.7263C26.4167 36.9053 26.1459 37.0526 26.1042 37.0526C26.073 37.0526 26.0417 33.5684 26.0417 29.3158C26.0417 25.0632 26.073 21.5789 26.1147 21.5789C26.1563 21.5789 26.4897 21.7684 26.8647 21.9895Z" fill="#043862"/>
<path d="M75.2606 13.5789C72.5731 13.9263 70.4272 14.9789 68.8126 16.7473C67.9897 17.6315 67.5731 18.3263 67.0835 19.5579C66.1668 21.8526 65.9689 24.6526 66.521 27.4737C67.4168 32.021 70.7918 34.9789 75.5731 35.3684C78.5418 35.621 81.4272 35.0421 83.3231 33.821C85.0522 32.7158 86.4481 30.9263 87.1564 28.8947C87.8543 26.9052 87.9793 23.5579 87.4376 21.2105C86.5522 17.3052 83.8439 14.6 80.0001 13.8C78.7814 13.5368 76.4064 13.4315 75.2606 13.5789ZM78.0106 17.3789C80.3751 17.7579 81.9064 19.7894 82.2918 23.0842C82.646 26.021 81.9793 28.8105 80.5835 30.2526C79.7085 31.1579 78.4481 31.6842 77.1251 31.6842C74.5001 31.6842 72.7606 30.2105 71.9585 27.3052C71.646 26.1579 71.6147 22.7789 71.9168 21.6316C72.7501 18.421 74.9585 16.8737 78.0106 17.3789Z" fill="#043862"/>
<path d="M39.4688 14.2947C37.9792 14.6947 37.1146 15.1474 36.2604 15.9579C34.9896 17.1579 34.5417 18.3579 34.5312 20.4737C34.5312 21.6316 34.5729 21.9474 34.7813 22.5579C35.2708 24.0211 36.1979 25.0105 37.7917 25.7579C38.5833 26.1368 39.8854 26.4947 42.3542 27.0316C44.7083 27.5474 45.4063 27.8947 45.8333 28.7474C46.1042 29.2737 46.1042 30.0947 45.8333 30.6211C45.5729 31.1474 44.9792 31.6421 44.3646 31.8421C43.3021 32.2 41.1042 32.2316 39.5313 31.9053C38.7292 31.7474 37.0313 31.179 35.9896 30.7263C35.4792 30.4947 34.9896 30.3158 34.9271 30.3158C34.7604 30.3158 34.7292 33.9368 34.8854 34.3474C35 34.6421 35.6042 34.8526 37.5625 35.3158C38.1875 35.4526 38.9063 35.6316 39.1667 35.6947C39.8958 35.8737 43.7708 35.9474 44.8021 35.8C46.8542 35.5053 48.2813 34.9053 49.3333 33.8737C50.0521 33.179 50.4792 32.4316 50.8333 31.2842C50.9688 30.8737 51.1146 30.5263 51.1563 30.5263C51.2083 30.5263 51.25 31.4 51.25 32.4632C51.25 33.5263 51.2813 34.6211 51.3229 34.8947L51.3854 35.4L56.4479 35.3263C59.2292 35.2947 62.5521 35.2316 63.8333 35.2L66.1458 35.1368V34.0632C66.1458 33.4842 66.1146 32.6105 66.0729 32.1368L66.0104 31.2632L61.2604 31.2947L56.5104 31.3158V28.7895V26.2632L59.6354 26.2C61.3542 26.1684 63.2917 26.1263 63.9375 26.1158L65.1042 26.1053V24.1579V22.2L60.7604 22.2316L56.4063 22.2632L56.3333 20.3158C56.2813 18.8316 56.3021 18.3368 56.3958 18.2316C56.5 18.1263 57.4688 18.0842 60.5833 18.0421C62.8125 18.0105 64.8333 17.9684 65.0833 17.9368L65.5208 17.8842L65.5 15.9684L65.4688 14.0526L61.4583 14.0947C59.25 14.1158 56.0208 14.1684 54.2708 14.2L51.0938 14.2632L51.1354 20.8632C51.1563 24.5053 51.1458 27.4737 51.1146 27.4737C51.0833 27.4737 50.9688 27.2947 50.875 27.0737C50.3229 25.8211 50.1146 25.4737 49.6354 24.9895C48.6146 23.979 46.9271 23.2737 44.4167 22.8C41.0729 22.1579 40.2083 21.8842 39.6458 21.2737C39.3958 21.0105 39.3229 20.8316 39.2917 20.3158C39.2292 19.4947 39.3021 19.2316 39.75 18.7368C40.7396 17.6316 43.5521 17.4211 46.6979 18.2211C47.375 18.3895 48.2708 18.6632 48.6979 18.8316C49.125 19 49.5 19.1053 49.5313 19.0737C49.6042 19 49.5938 17.1263 49.5208 15.8842L49.4479 14.8737L48.3438 14.6421C46.0417 14.179 45.2604 14.0842 42.9167 14.0421C40.6146 14 40.5521 14.0105 39.4688 14.2947Z" fill="#043862"/>
<path d="M19.8229 47.2105C19.7916 47.3053 19.8229 47.6737 19.8958 48.0316C20.177 49.4947 21.0624 50.7368 22.2604 51.3368L22.8645 51.6316L59.7604 51.6632L96.6562 51.6842L97.2395 51.4632C98.7083 50.9053 99.7812 49.4105 99.9687 47.6737L100.031 47.0526H59.9583C23.9791 47.0526 19.8854 47.0737 19.8229 47.2105ZM66.1562 48.1684C66.2499 48.2842 66.2604 48.3789 66.177 48.5053C66.0833 48.6737 65.5312 48.6842 59.927 48.7158C53.2916 48.7368 53.3645 48.7474 53.6458 48.221C53.7604 48 53.802 48 59.8854 48C65.3541 48 66.0312 48.021 66.1562 48.1684Z" fill="#043862"/>
</g>
<defs>
<clipPath id="clip0_51_17">
<rect width="100" height="52" fill="white"/>
</clipPath>
</defs>
</svg>
