<svg width="100" height="100" viewBox="0 0 100 100" fill="none" xmlns="http://www.w3.org/2000/svg">
<g clip-path="url(#clip0_53_63)">
<path d="M26.823 24.151C25.5938 24.4563 24.6667 25.2247 24.0938 26.4037L23.698 27.2037L23.6459 34.4669L23.5938 41.7405L22.0834 41.8142C19.073 41.9511 16.7813 42.909 14.6876 44.9195C13.5313 46.0248 12.7813 47.0669 12.1355 48.4563C10.3751 52.2142 10.8647 56.909 13.3438 60.2458L13.8855 60.9721L13.323 61.5405L12.7709 62.109L12.5522 61.8984C12.0626 61.4353 12.1563 61.3511 5.90632 67.6037C1.15632 72.3721 -0.0103477 73.5826 6.89296e-05 73.7932C6.89296e-05 74.1721 1.82299 76.0037 2.18757 76.0037C2.3959 76.0037 3.71882 74.7195 8.30215 70.0774C13.5105 64.8142 14.1667 64.1195 14.1667 63.8248C14.1667 63.6458 14.0938 63.4458 14.0105 63.3721C13.7605 63.1616 13.823 63.0142 14.3751 62.4879L14.9063 61.9932L15.1876 62.2142C17.3959 63.93 19.4584 64.6984 22.1147 64.8142C22.8959 64.8458 23.5417 64.8774 23.5522 64.8879C23.5522 64.8984 23.5938 65.4248 23.6355 66.0774C23.7084 67.0458 23.7709 67.3616 24.0313 67.9195C24.4584 68.8142 25.1772 69.53 26.1459 69.9932L26.9272 70.3721L59.8959 70.3616H92.8647L93.4376 70.13C94.6459 69.6353 95.5417 68.709 95.9376 67.53C96.1459 66.8984 96.1459 66.7616 96.1251 47.0037L96.0938 27.1089L95.8126 26.5089C95.2709 25.33 94.0938 24.3826 92.8334 24.1195C91.9897 23.9405 27.5417 23.9721 26.823 24.151ZM92.8647 26.6668C93.0938 26.7931 93.3855 27.0668 93.5105 27.2563L93.7501 27.6142V47.1511V66.6879L93.5105 67.0984C93.3751 67.3405 93.1147 67.6037 92.8647 67.73L92.448 67.9511L62.448 67.9826C45.948 68.0037 31.2605 67.9826 29.8126 67.9511C27.3647 67.8774 27.1563 67.8563 26.8542 67.6458C26.1772 67.1826 26.0938 66.9616 26.0938 65.5721V64.3195L27.0938 63.8563C32.9792 61.1826 35.5522 54.33 32.8647 48.4563C31.6876 45.8774 29.4063 43.6774 26.823 42.6248L26.0938 42.33L26.0626 35.0563C26.0417 28.0247 26.0522 27.7721 26.2397 27.3826C26.4584 26.9721 26.8126 26.6668 27.2813 26.53C27.4272 26.4774 42.1563 26.4353 60.0001 26.4353L92.448 26.4247L92.8647 26.6668ZM23.4792 44.8037C23.6251 44.8669 23.6459 45.5826 23.6459 51.8353C23.6459 55.6563 23.6147 59.4669 23.573 60.2774L23.5105 61.7721L23.0209 61.8353C22.2501 61.9405 20.7188 61.73 19.7501 61.3932C17.0522 60.4563 14.9897 58.2037 14.2605 55.4037C14.0105 54.4353 13.9584 52.6037 14.1563 51.6353C14.8542 48.3195 17.4688 45.6353 20.698 44.9511C21.5938 44.7616 23.1563 44.6774 23.4792 44.8037ZM26.8647 45.9932C29.3959 47.5195 30.9376 50.2984 30.9376 53.3195C30.9376 56.4142 29.4272 59.0563 26.7084 60.73C26.4167 60.909 26.1459 61.0563 26.1042 61.0563C26.073 61.0563 26.0417 57.5721 26.0417 53.3195C26.0417 49.0669 26.073 45.5826 26.1147 45.5826C26.1563 45.5826 26.4897 45.7721 26.8647 45.9932Z" fill="#043862"/>
<path d="M75.2606 37.5826C72.5731 37.93 70.4272 38.9826 68.8126 40.751C67.9897 41.6352 67.5731 42.33 67.0835 43.5616C66.1668 45.8563 65.9689 48.6563 66.521 51.4774C67.4168 56.0247 70.7918 58.9826 75.5731 59.3721C78.5418 59.6247 81.4272 59.0458 83.3231 57.8247C85.0522 56.7195 86.4481 54.93 87.1564 52.8984C87.8543 50.9089 87.9793 47.5616 87.4376 45.2142C86.5522 41.3089 83.8439 38.6037 80.0001 37.8037C78.7814 37.5405 76.4064 37.4352 75.2606 37.5826ZM78.0106 41.3826C80.3751 41.7616 81.9064 43.7931 82.2918 47.0879C82.646 50.0247 81.9793 52.8142 80.5835 54.2563C79.7085 55.1616 78.4481 55.6879 77.1251 55.6879C74.5001 55.6879 72.7606 54.2142 71.9585 51.3089C71.646 50.1616 71.6147 46.7826 71.9168 45.6353C72.7501 42.4247 74.9585 40.8774 78.0106 41.3826Z" fill="#043862"/>
<path d="M39.4688 38.2984C37.9792 38.6984 37.1146 39.1511 36.2604 39.9616C34.9896 41.1616 34.5417 42.3616 34.5312 44.4774C34.5312 45.6353 34.5729 45.9511 34.7813 46.5616C35.2708 48.0248 36.1979 49.0142 37.7917 49.7616C38.5833 50.1405 39.8854 50.4984 42.3542 51.0353C44.7083 51.5511 45.4064 51.8984 45.8334 52.7511C46.1043 53.2774 46.1043 54.0984 45.8334 54.6248C45.573 55.1511 44.9793 55.6458 44.3647 55.8458C43.3022 56.2037 41.1042 56.2353 39.5313 55.909C38.7292 55.7511 37.0314 55.1827 35.9897 54.73C35.4793 54.4984 34.9897 54.3195 34.9272 54.3195C34.7605 54.3195 34.7292 57.9405 34.8854 58.3511C35 58.6458 35.6042 58.8563 37.5625 59.3195C38.1875 59.4563 38.9063 59.6353 39.1667 59.6984C39.8958 59.8774 43.7709 59.9511 44.8022 59.8037C46.8543 59.509 48.2814 58.909 49.3334 57.8774C50.0522 57.1827 50.4793 56.4353 50.8334 55.2879C50.9689 54.8774 51.1146 54.53 51.1563 54.53C51.2083 54.53 51.25 55.4037 51.25 56.4669C51.25 57.53 51.2813 58.6248 51.3229 58.8984L51.3854 59.4037L56.4479 59.33C59.2292 59.2984 62.5522 59.2353 63.8334 59.2037L66.1458 59.1405V58.0669C66.1458 57.4879 66.1146 56.6142 66.0729 56.1405L66.0104 55.2669L61.2604 55.2984L56.5104 55.3195V52.7932V50.2669L59.6354 50.2037C61.3542 50.1721 63.2917 50.13 63.9375 50.1195L65.1043 50.109V48.1616V46.2037L60.7604 46.2353L56.4063 46.2669L56.3334 44.3195C56.2814 42.8353 56.3022 42.3405 56.3959 42.2353C56.5001 42.13 57.4689 42.0879 60.5834 42.0458C62.8126 42.0142 64.8333 41.9721 65.0833 41.9405L65.5208 41.8879L65.5 39.9721L65.4689 38.0563L61.4584 38.0984C59.2501 38.1195 56.0209 38.1721 54.2709 38.2037L51.0938 38.2669L51.1354 44.8669C51.1563 48.509 51.1459 51.4774 51.1147 51.4774C51.0834 51.4774 50.9688 51.2984 50.875 51.0774C50.3229 49.8248 50.1146 49.4774 49.6354 48.9932C48.6146 47.9827 46.9271 47.2774 44.4167 46.8037C41.0729 46.1616 40.2084 45.8879 39.6459 45.2774C39.3959 45.0142 39.3229 44.8353 39.2917 44.3195C39.2292 43.4984 39.3021 43.2353 39.75 42.7405C40.7396 41.6353 43.5521 41.4248 46.6979 42.2248C47.375 42.3932 48.2708 42.6669 48.6979 42.8353C49.125 43.0037 49.5 43.109 49.5313 43.0774C49.6042 43.0037 49.5939 41.13 49.5209 39.8879L49.4479 38.8774L48.3438 38.6458C46.0417 38.1827 45.2604 38.0879 42.9167 38.0458C40.6146 38.0037 40.5521 38.0142 39.4688 38.2984Z" fill="#043862"/>
<path d="M19.8229 71.2142C19.7916 71.309 19.8229 71.6774 19.8958 72.0353C20.177 73.4984 21.0624 74.7405 22.2604 75.3405L22.8645 75.6353L59.7604 75.6669L96.6562 75.6879L97.2395 75.4669C98.7083 74.909 99.7812 73.4142 99.9687 71.6774L100.031 71.0563H59.9583C23.9791 71.0563 19.8854 71.0774 19.8229 71.2142ZM66.1562 72.1721C66.2499 72.2879 66.2604 72.3826 66.177 72.509C66.0833 72.6774 65.5312 72.6879 59.927 72.7195C53.2916 72.7405 53.3645 72.7511 53.6458 72.2247C53.7604 72.0037 53.802 72.0037 59.8854 72.0037C65.3541 72.0037 66.0312 72.0247 66.1562 72.1721Z" fill="#043862"/>
</g>
<defs>
<clipPath id="clip0_53_63">
<rect width="100" height="100" fill="white"/>
</clipPath>
</defs>
</svg>
