<svg xmlns="http://www.w3.org/2000/svg" viewBox="0 0 128 128">
  <g id="Group_1082" data-name="Group 1082" transform="translate(-9324 -1935)">
    <path id="Path_1078" data-name="Path 1078" d="M0,0H125V125H0Z" transform="translate(9324 1935)" fill="#043862"/>
    <path id="Path_1079" data-name="Path 1079" d="M43.359-24.155H28.069V19.622H15.957V-24.155H.742v-9.832H43.359Zm4.748,41.721V5.6A22.987,22.987,0,0,0,55.173,9.7a22.711,22.711,0,0,0,7.7,1.365,17.078,17.078,0,0,0,3.981-.411A9.326,9.326,0,0,0,69.7,9.51a4.973,4.973,0,0,0,1.7-1.72,4.291,4.291,0,0,0,.561-2.15,4.647,4.647,0,0,0-.9-2.8A9.655,9.655,0,0,0,68.612.556,25.586,25.586,0,0,0,64.93-1.462q-2.131-.972-4.6-1.981a23.468,23.468,0,0,1-9.365-6.393,13.957,13.957,0,0,1-3.084-9.122,14.528,14.528,0,0,1,1.682-7.2,14.287,14.287,0,0,1,4.58-4.953,20.534,20.534,0,0,1,6.71-2.86,34.481,34.481,0,0,1,8.075-.916,48.568,48.568,0,0,1,7.421.5,29.184,29.184,0,0,1,5.963,1.551V-21.65a18.03,18.03,0,0,0-2.935-1.645,23.25,23.25,0,0,0-3.271-1.178,24.951,24.951,0,0,0-3.346-.692,23.68,23.68,0,0,0-3.159-.224A16.474,16.474,0,0,0,65.865-25a9.589,9.589,0,0,0-2.841,1.1,5.487,5.487,0,0,0-1.794,1.7,4.032,4.032,0,0,0-.636,2.224,4.248,4.248,0,0,0,.71,2.411,8.148,8.148,0,0,0,2.019,2.019A21.423,21.423,0,0,0,66.5-13.668q1.869.916,4.224,1.888A47.073,47.073,0,0,1,76.5-8.921,20.533,20.533,0,0,1,80.893-5.5a13.326,13.326,0,0,1,2.8,4.355,15.39,15.39,0,0,1,.972,5.7,15.271,15.271,0,0,1-1.7,7.533,13.81,13.81,0,0,1-4.617,4.935,20.02,20.02,0,0,1-6.785,2.71,39.213,39.213,0,0,1-8.168.822A45.42,45.42,0,0,1,55,19.809,25.335,25.335,0,0,1,48.107,17.566Z" transform="translate(9349.417 2027.878)" fill="#e4e4e4"/>
  </g>
</svg>
